# xmcd CD database file
#
# Track frame offsets:
#	150
#	16904
#	34091
#	50470
#	65057
#	80372
#	93502
#	108121
#	122009
#	135548
#	164314
#	178790
#	192703
#	207537
#
# Disc length: 2939 seconds
#
# Revision: 1
# Processed by: cddbd v1.5.2PL0 Copyright (c) Steve Scherf et al.
# Submitted via: CDex 1.51
#
DISCID=c30b790e
DTITLE=Níkos Xilouris - Megales Epitixies
DYEAR=2009
DGENRE=Ethnic
TTITLE0=Mia Pantreméne Agató
TTITLE1=Oso Barun ta Sídera
TTITLE2=San Érphoun Mána oi phíloi Mon
TTITLE3=Zéno Petháno ste Dzoé
TTITLE4=Herthes Argá, den Prólabes
TTITLE5=Hinta Kete Gyru Gyru
TTITLE6=Krypse to mystikó
TTITLE7=Egó Mai ton Mpaxé Puli 
TTITLE8=Hola su Eínai Ómorpha
TTITLE9=Eis ton Barsámon to Neró
TTITLE10=Pós eísai agápe Mou Makriá
TTITLE11=E Kakomoíra e Mána Mou
TTITLE12=Den Klaíne oi Dunatés Kardiés
TTITLE13=Kretikopula Mou
EXTD=YEAR: 2009
EXTT0=
EXTT1=
EXTT2=
EXTT3=
EXTT4=
EXTT5=
EXTT6=
EXTT7=
EXTT8=
EXTT9=
EXTT10=
EXTT11=
EXTT12=
EXTT13=
PLAYORDER=
